<svg id="Layer_1" data-name="Layer 1" xmlns="http://www.w3.org/2000/svg" viewBox="0 0 831.66 898.32"><defs><style>.cls-1,.cls-2{fill:none;}.cls-1,.cls-2,.cls-3{stroke:#000;stroke-miterlimit:10;}.cls-1{stroke-width:20px;}.cls-2{stroke-width:15px;}</style></defs><title>FrogsBreath</title><path class="cls-1" d="M323,279.84C207.94,323.21,165.73,503.68,157.55,544.57a12.66,12.66,0,0,0,5.25,12.92c24.48,16.8,58.28,40.85,97.2,71.35,56.36,44.16,67.09,57.65,90,75,129.29,97.89,308.36,62.44,334,57,91-19.31,128.85-58.9,138-69A195.53,195.53,0,0,0,848.82,654a12.68,12.68,0,0,1,6.63-5.82l40.38-15.42A12.69,12.69,0,0,0,903.66,618c-29.55-129.87-99.33-213.91-99.33-213.91" transform="translate(-147.3 -144.88)"/><path d="M340,311.86a104,104,0,0,1-23.85-50.56,101,101,0,0,1,7.17-57.47,95.47,95.47,0,0,1,39.84-44,104.63,104.63,0,0,1,13.5-6.6,117,117,0,0,1,14.19-4.75,115.05,115.05,0,0,1,14.7-2.89c2.52-.32,5-.58,7.72-.7l1.15,0h1l1.95,0c1.28,0,2.53.1,3.78.17A131.72,131.72,0,0,1,435.93,147a129.69,129.69,0,0,1,14.46,3.54,118.52,118.52,0,0,1,14,5.4,95.55,95.55,0,0,1,13.25,7.37,96.65,96.65,0,0,1,12,9.5,83.54,83.54,0,0,1,10.15,11.52l2.2,3.13c.7,1.07,1.35,2.17,2,3.25.33.55.68,1.08,1,1.63l.9,1.68c.59,1.13,1.22,2.23,1.76,3.38A87.66,87.66,0,0,1,513,211.52a85.54,85.54,0,0,1,2.82,14.72,89.69,89.69,0,0,1,.37,14.83A96.42,96.42,0,0,1,476,313.86a117.41,117.41,0,0,0,15.45-22.4,102.43,102.43,0,0,0,9.25-24.78c3.93-17,3.17-34.75-2.67-50.33a74.44,74.44,0,0,0-12.22-21.27,76.59,76.59,0,0,0-8.51-8.67,77.74,77.74,0,0,0-9.89-7.15,93,93,0,0,0-22.73-9.84A114.34,114.34,0,0,0,419.86,165c-1-.07-2.07-.13-3.09-.16l-1.49,0H414c-1.84.06-3.95.25-6,.5a104.81,104.81,0,0,0-12.31,2.28,99.92,99.92,0,0,0-23.36,8.78,85.2,85.2,0,0,0-20,14.51,83.56,83.56,0,0,0-15,19.87c-8.11,14.73-12,32-11.49,49.54a111,111,0,0,0,4.06,26.23A131.45,131.45,0,0,0,340,311.86Z" transform="translate(-147.3 -144.88)"/><path class="cls-1" d="M694,296.86s-131.76-41-184.38-33" transform="translate(-147.3 -144.88)"/><path d="M694,318.5a64.8,64.8,0,0,1,0-32.82,60.38,60.38,0,0,1,18-29.38,67,67,0,0,1,9.36-7.16,73.63,73.63,0,0,1,10.41-5.54,81,81,0,0,1,22.73-6.13,81.87,81.87,0,0,1,23.74.5,71.26,71.26,0,0,1,11.74,2.94q1.46.47,2.88,1.05c.94.37,1.9.74,2.84,1.14,1.86.86,3.74,1.69,5.53,2.7s3.54,2.07,5.29,3.16,3.38,2.33,4.95,3.63,3.13,2.63,4.66,4,2.94,2.83,4.28,4.35a79.38,79.38,0,0,1,7.39,9.55,86.38,86.38,0,0,1,5.93,10.33,104,104,0,0,1,7.69,22.07,111.27,111.27,0,0,1,2.76,22.88,105.79,105.79,0,0,1-.41,11.53,96.47,96.47,0,0,1-1.79,11.46,92.68,92.68,0,0,1-20.22,40.44,110.49,110.49,0,0,1-7.66,8.07,106.8,106.8,0,0,1-8.41,7.11A90.83,90.83,0,0,1,787,415.5a132.68,132.68,0,0,0,26.72-32,93.33,93.33,0,0,0,12.7-37.33A103.8,103.8,0,0,0,823,307.5a92.11,92.11,0,0,0-7-17.85,71.91,71.91,0,0,0-4.77-8.07,60.21,60.21,0,0,0-5.71-7.22c-1-1.16-2.08-2.2-3.14-3.29s-2.21-2.05-3.4-3-2.39-1.81-3.6-2.7-2.5-1.65-3.81-2.37a57.87,57.87,0,0,0-16.94-6.47,73.57,73.57,0,0,0-37.36,1.69,70.19,70.19,0,0,0-8.86,3.48,65.27,65.27,0,0,0-8.27,4.75,57,57,0,0,0-13.76,13.4,59.68,59.68,0,0,0-5.1,8.49,70.54,70.54,0,0,0-3.75,9.42A86.31,86.31,0,0,0,694,318.5Z" transform="translate(-147.3 -144.88)"/><path class="cls-2" d="M845,594.86a234.46,234.46,0,0,1-39-9,231.6,231.6,0,0,1-32-13c-13.41-6.49-47.22-17.22-158-6-57.2,5.79-65.19,10.37-131,16-37.36,3.19-56.05,4.81-66,4-47.37-3.85-76-21-139-22-4.76-.07-8.63,0-11,0l-11-13c32.85-1.64,62.36-1.84,83-7,21.14-5.29,51.11-10.57,78-34,27.79-24.21,18.46-17.56,57-46,27.49-20.29,48.42-27.27,67-31,29.15-5.85,60,4.11,71,7,15.37,4,43.52,16,66,45,16.14,20.84,17.73,41,28,41,8.39,0,9.3-13.49,28-27,6-4.32,18.78-13.57,34-12,5.93.61,22,4.84,35,15,12,9.38,20,18.87,33,43,12.16,22.48,18.44,36.75,22,51Z" transform="translate(-147.3 -144.88)"/><path d="M288,579.86c22.81,11.28,46,20.9,70,26.34q9,2,18.06,3.33c6.06.84,12.1,1.44,18.23,1.77s12.36.53,18.58.6,12.48.15,18.74.08,12.53-.08,18.79-.21c3.13,0,6.28-.1,9.36-.18l9.38-.33c6.27-.19,12.55-.53,18.93-.69s12.88-.28,19.51.16a86.81,86.81,0,0,1,19.77,3.44,93.65,93.65,0,0,1,18.28,7.7,97.66,97.66,0,0,1,29.37,25,151,151,0,0,0-15.74-10.44,114,114,0,0,0-16.73-7.86,99.39,99.39,0,0,0-17.47-4.8c-1.46-.3-2.95-.42-4.41-.65s-2.95-.3-4.42-.43c-3-.16-5.94-.24-9-.16-12,.33-24.61,2-37.32,3-3.18.28-6.37.44-9.56.65s-6.4.33-9.59.46q-9.57.31-19.14.4c-12.77,0-25.56-.31-38.48-1.53a182.24,182.24,0,0,1-38.32-7.92c-3.09-1-6.17-2.08-9.19-3.28s-6-2.4-9-3.69c-5.91-2.66-11.7-5.51-17.28-8.72A196.66,196.66,0,0,1,288,579.86Z" transform="translate(-147.3 -144.88)"/><path d="M863,610.86c-1.53-.25-2.93-.54-4.28-.77a35.08,35.08,0,0,0-3.79-.48,13.76,13.76,0,0,0-3.15.12,5.57,5.57,0,0,0-2.08.8,3.72,3.72,0,0,0-1.07,1.11l-1.12,1.6a62.81,62.81,0,0,1-4.42,6.22,31.39,31.39,0,0,1-15.6,9.79,30,30,0,0,1-17.49-.39c2.22-2.17,4.41-3.82,6.47-5.51s4-3.21,5.85-4.72a76.55,76.55,0,0,0,9.39-8.94,76,76,0,0,1,5.36-6.09,18.94,18.94,0,0,1,4.93-3.39,14.4,14.4,0,0,1,6.33-1.37,13.84,13.84,0,0,1,5.72,1.34,15.85,15.85,0,0,1,4.2,2.89,18.7,18.7,0,0,1,2.9,3.64A17.23,17.23,0,0,1,863,610.86Z" transform="translate(-147.3 -144.88)"/><path d="M431.5,226.78l-33.38,12.84s-15.59,25.68-29.35,0,14.86-33.94,25.68-18.35l37.05-13.76s3.31-21.09,21.65-6.42,7.34,28.44-3.67,29.35S431.5,226.78,431.5,226.78Z" transform="translate(-147.3 -144.88)"/><path d="M774.43,295.4l20.87,15.48s21.52-.37,11.61,18-26.17,4-21.12-8.64l-22.87-17.37S749,309,750.52,292.06s14.1-15.47,19-9.09A22.55,22.55,0,0,1,774.43,295.4Z" transform="translate(-147.3 -144.88)"/><path d="M504,585a8.93,8.93,0,0,1,1.89-.63l1.95-.48c1.3-.31,2.6-.59,3.91-.86q3.91-.81,7.85-1.53,7.88-1.49,15.79-2.66c10.56-1.57,21.16-3,31.94-3.62,2.69-.15,5.4-.25,8.15-.25,1.35,0,2.8,0,4.24.13a39.05,39.05,0,0,1,4.3.5,43.85,43.85,0,0,1,16.18,6.26,48.79,48.79,0,0,1,20.62,27.87l.06.21.08.56q4,28.75,7.57,57.57l1.75,14.41,1.66,14.42c1.14,9.6,2.14,19.23,3.2,28.84s2,19.25,3,28.87l2.77,28.89L642.2,798l.64,7.22c.09,1.09.22,2.72.22,4.18a34.53,34.53,0,0,1-.25,4.43,35.26,35.26,0,0,1-12.17,22.82l-.84.7-.42.34-.37.28L627.57,839l-2.88,2.21-.49.38-.27.14a60.24,60.24,0,0,1-13.78,5.4A56.1,56.1,0,0,1,595.51,849a54.74,54.74,0,0,1-7.35-.57c-.61-.07-1.21-.19-1.81-.29s-1.13-.21-1.72-.32c-1.15-.23-2.33-.49-3.49-.78a48.31,48.31,0,0,1-13.55-5.49,36.91,36.91,0,0,1-10.8-9.94,35.43,35.43,0,0,1-5.85-13.14,46.34,46.34,0,0,1,2.65-27.14,52,52,0,0,0-1.12,13.29,40.93,40.93,0,0,0,2.41,12.71A32.46,32.46,0,0,0,561.31,828a31.14,31.14,0,0,0,9.77,7.18,41.75,41.75,0,0,0,11.77,3.46c1,.15,2.07.28,3.14.39.52.06,1.11.13,1.61.17s1,.09,1.53.11a46,46,0,0,0,6.1,0,49.7,49.7,0,0,0,11.9-2.41,52.18,52.18,0,0,0,10.94-5.17l-.76.53,2.74-2.38,1.38-1.18.34-.3.26-.24.53-.5a23.51,23.51,0,0,0,7.09-15.1,22,22,0,0,0,0-2.81c0-1-.15-1.74-.32-3.06l-.89-7.2L626.71,785l-3.34-28.83c-1-9.62-2.13-19.23-3.11-28.86s-2-19.24-2.9-28.87L616,684l-1.3-14.45q-2.61-28.92-4.65-57.88l.14.77a41.63,41.63,0,0,0-5.24-13.06,40.4,40.4,0,0,0-9.53-10.59,38,38,0,0,0-12.86-6.51,33.37,33.37,0,0,0-3.56-.82,30.8,30.8,0,0,0-3.72-.44c-2.58-.19-5.19-.28-7.81-.32-10.51-.09-21.14.39-31.73,1.12-5.3.38-10.6.79-15.9,1.26q-4,.34-7.94.78l-4,.46-2,.27A8.94,8.94,0,0,0,504,585Z" transform="translate(-147.3 -144.88)"/><path d="M601.81,568.38a3.22,3.22,0,0,1,1.29-1,14.31,14.31,0,0,1,1.5-.67c1-.4,2.06-.73,3.11-1,2.11-.59,4.25-1,6.4-1.43a100.23,100.23,0,0,1,13-1.36q3.29-.13,6.57-.14a57.33,57.33,0,0,1,6.71.29,32.33,32.33,0,0,1,13.12,4.65,45.23,45.23,0,0,1,10.56,8.95c.81.83,1.49,1.74,2.21,2.64s1.45,1.79,2.06,2.75l1.93,2.84,1.72,3c.59,1,1.08,2,1.59,3s1,2,1.49,3.08c.88,2.09,1.81,4.18,2.52,6.33a98.12,98.12,0,0,1,3.64,13.12l0,.07,0,.39q4.35,42.6,8,85.26c2.42,28.44,4.74,56.88,6.77,85.35s4,56.93,5.71,85.42c.84,14.24,1.68,28.49,2.42,42.74l.28,5.34.07,1.38c0,.55,0,1.1,0,1.65,0,1.11-.06,2.21-.17,3.31a33.05,33.05,0,0,1-7.57,17.89l-3.52,4.09-7,8.09-.41.47-.25.21a53.08,53.08,0,0,1-15.78,9.1,40.33,40.33,0,0,1-18.4,2.18,39.34,39.34,0,0,1-4.59-.81c-1.4-.32-2.8-.72-4.24-1.16a43.52,43.52,0,0,1-8.35-3.65,39.79,39.79,0,0,1-7.34-5.4,45.26,45.26,0,0,1-5.82-6.82,48.53,48.53,0,0,1-4.3-7.65c-.56-1.34-1.18-2.65-1.69-4l-1.36-4.09a74.64,74.64,0,0,1-2.79-16.73,102.5,102.5,0,0,1,3.59-32.94,115.14,115.14,0,0,0-1,16.36,101.15,101.15,0,0,0,1.26,16.17A79.46,79.46,0,0,0,619,931l1.55,3.6c.57,1.18,1.23,2.3,1.83,3.45a41.59,41.59,0,0,0,4.31,6.34A33.28,33.28,0,0,0,645.09,956c1.2.28,2.47.54,3.76.76a32.45,32.45,0,0,0,3.54.38,30.76,30.76,0,0,0,13.87-2.55,42.43,42.43,0,0,0,12.17-8l-.65.68,6.59-8.44,3.28-4.17a21.36,21.36,0,0,0,2.18-3.53,20.71,20.71,0,0,0,2.06-7.92q.06-1,0-2c0-.34,0-.68-.06-1l-.11-1.29-.47-5.33c-1.29-14.21-2.46-28.44-3.64-42.66q-3.45-42.66-6.4-85.37c-2-28.47-3.71-56.95-5.33-85.45s-2.95-57-4.08-85.53l.06.45a97.08,97.08,0,0,0-2.52-12.06c-.5-2-1.21-3.92-1.86-5.86-.33-1-.76-1.9-1.14-2.86a30.62,30.62,0,0,0-1.23-2.81l-1.34-2.76L662.31,586c-.48-.91-1.07-1.73-1.62-2.58a29.29,29.29,0,0,0-1.74-2.5,39.21,39.21,0,0,0-8.47-8.54,28.74,28.74,0,0,0-10.74-4.94,52.46,52.46,0,0,0-6.2-.91c-2.13-.23-4.26-.4-6.4-.53a122.2,122.2,0,0,0-12.84-.09c-2.14.12-4.28.31-6.41.64-1.06.17-2.11.36-3.16.61a16,16,0,0,0-1.54.45A3.11,3.11,0,0,0,601.81,568.38Z" transform="translate(-147.3 -144.88)"/><path d="M685.85,564.45a30.78,30.78,0,0,1,9.75,1.09,40.43,40.43,0,0,1,9.18,3.94,57.68,57.68,0,0,1,15.05,13.25,83.31,83.31,0,0,1,10.76,17,109.26,109.26,0,0,1,7,18.9l.08.44q8.58,48.42,16,97t14.14,97.25c2.28,16.21,4.34,32.46,6.5,48.69l3.09,24.37c1,8.13,2.07,16.24,3,24.38l2.92,24.39,2.81,24.4c.12,1,.23,2.16.34,3.29s.18,2.28.24,3.42.1,2.28.11,3.42l0,1.71,0,1.71a83.63,83.63,0,0,1-1.52,13.64,74.28,74.28,0,0,1-3.91,13.35,58.13,58.13,0,0,1-6.88,12.58l.41-.64a52.11,52.11,0,0,1-8.22,10.39,58.7,58.7,0,0,1-10.15,8c-1.76,1.21-3.65,2.11-5.49,3.14l-2.82,1.33-1.41.66-1.44.57-2.87,1.14c-1,.35-1.94.66-2.91,1-1.93.69-3.9,1.16-5.85,1.71a106.27,106.27,0,0,1-23.74,3.16,114.36,114.36,0,0,1-23.55-1.83,110.24,110.24,0,0,1-22.57-6.51,91.34,91.34,0,0,1-20.35-11.57,72,72,0,0,1-15.92-16.91,63.22,63.22,0,0,1-5.37-10.15,65.41,65.41,0,0,1-3.53-10.79,70.17,70.17,0,0,0,11.55,19A67.4,67.4,0,0,0,647,1018.22a90.28,90.28,0,0,0,19.79,8.6,108.91,108.91,0,0,0,21.14,4,106.64,106.64,0,0,0,42-4.33c13.13-4.28,24.94-11.88,30.61-22.72l0,0,.38-.59a50.13,50.13,0,0,0,7-19.46,68.11,68.11,0,0,0,.75-10.79v-1.36l-.06-1.35c0-.91-.07-1.81-.16-2.71s-.15-1.81-.27-2.71-.21-1.74-.37-2.81l-3.48-24.32L761,913.29c-1.14-8.11-2.18-16.23-3.26-24.35l-3.19-24.35c-2-16.25-4.16-32.49-6.07-48.76q-6-48.76-11-97.65t-9.13-97.89l.08.44a110.66,110.66,0,0,0-4.76-18.06,85.93,85.93,0,0,0-8.14-16.83,55.24,55.24,0,0,0-12.38-14,38.73,38.73,0,0,0-8.06-4.92A32.78,32.78,0,0,0,685.85,564.45Z" transform="translate(-147.3 -144.88)"/><path d="M577,869.73a45.88,45.88,0,0,1-3.12,11.18,47.63,47.63,0,0,1-5.91,10.39,37.59,37.59,0,0,1-9.06,8.66l-.66.47-.7.41-1.41.81c-.48.27-1,.55-1.44.79l-1.52.65a30.27,30.27,0,0,1-3.08,1.21l-1.59.5-1.64.38a36.23,36.23,0,0,1-13.37.41,45.41,45.41,0,0,1-12.5-3.9,66.65,66.65,0,0,1-19.92-15,85.56,85.56,0,0,1-7.64-9.62,67.72,67.72,0,0,1-6-11,58,58,0,0,1-3.68-12c-.38-2-.7-4.1-.88-6.16s-.27-4.12-.25-6.16A69.54,69.54,0,0,1,487,818.3,75.39,75.39,0,0,1,492,807.68a57.39,57.39,0,0,1,6.59-9.49A129.59,129.59,0,0,0,494.19,820a84.77,84.77,0,0,0,.2,21.08,59.54,59.54,0,0,0,5.95,19.07c.35.74.79,1.44,1.17,2.17s.8,1.44,1.24,2.14q1.32,2.12,2.83,4.17a74.84,74.84,0,0,0,6.46,7.87,68.32,68.32,0,0,0,7.32,6.94,54.26,54.26,0,0,0,8,5.59,38.46,38.46,0,0,0,8.62,3.6,30.1,30.1,0,0,0,4.46.82c.75.11,1.5.11,2.26.17s1.51,0,2.27-.07a29.8,29.8,0,0,0,9.06-2.17,34.78,34.78,0,0,0,8.56-5.17A68.47,68.47,0,0,0,577,869.73Z" transform="translate(-147.3 -144.88)"/><path d="M817.74,978.42c-.06,3.69,0,7.31.16,10.85a55.63,55.63,0,0,0,1.45,10.17,23.06,23.06,0,0,0,3.65,8.25c.37.57.9,1,1.29,1.48s.94.81,1.43,1.18A14.32,14.32,0,0,0,829,1012a22.5,22.5,0,0,0,8.15.93,42.91,42.91,0,0,0,9.05-1.48,65.89,65.89,0,0,0,9.07-3.15,74.72,74.72,0,0,0,8.73-4.35,75.91,75.91,0,0,0,8.2-5.35,73.7,73.7,0,0,0,7.47-6.24,63.72,63.72,0,0,0,11.78-15.24,79.27,79.27,0,0,0,7.15-18.81q1.21-5.06,2-10.35c.49-3.53.84-7.12,1.07-10.81a64.52,64.52,0,0,1,.59,44.75c-.76,1.82-1.45,3.69-2.3,5.49L898.56,990a25.61,25.61,0,0,1-1.48,2.6l-1.62,2.54c-.27.42-.54.84-.83,1.26l-.9,1.2c-.6.8-1.22,1.58-1.86,2.35s-1.29,1.53-2,2.26a75.25,75.25,0,0,1-8.66,8.1,86.76,86.76,0,0,1-9.77,6.61,82.33,82.33,0,0,1-10.69,5.07,67.46,67.46,0,0,1-11.53,3.28,47.85,47.85,0,0,1-12.38.81,36.56,36.56,0,0,1-6.45-1,30.25,30.25,0,0,1-6.38-2.47,23.33,23.33,0,0,1-5.67-4.3c-.8-.88-1.54-1.84-2.24-2.78-.31-.49-.6-1-.89-1.5a11,11,0,0,1-.79-1.52,28.62,28.62,0,0,1-2.4-12.33,45.61,45.61,0,0,1,1.71-11.39A57.68,57.68,0,0,1,817.74,978.42Z" transform="translate(-147.3 -144.88)"/><path d="M756,567c1.73,4.4,3.38,8.82,5.06,13.23s3.3,8.84,4.94,13.26q4.95,13.28,9.71,26.59l0,.08.07.36q8.15,39.4,15.38,79t13.88,79.24c4.45,26.43,8.61,52.92,12.69,79.41,2,13.26,4,26.51,5.88,39.78l.7,4.85a21.24,21.24,0,0,0,.86,3.74,21.8,21.8,0,0,0,3.55,6.7c.39.5.81,1,1.24,1.43.22.23.44.46.67.68s.43.41.78.71l3.75,3.35,7.49,6.7-.84-.61c8,5.09,17.47,7.66,26,5.15.54-.15,1.06-.34,1.59-.51s1-.37,1.65-.65c1.18-.48,2.26-1,3.31-1.48a30.44,30.44,0,0,0,5.81-3.8,33,33,0,0,0,8.5-11.28A52.53,52.53,0,0,0,893,898.5a79.38,79.38,0,0,0,.74-15.53,108.1,108.1,0,0,0-1.88-15.75,124.79,124.79,0,0,0-3.93-15.56,107,107,0,0,1,10.3,30.83,79.3,79.3,0,0,1,1.06,16.63,57,57,0,0,1-3.24,16.8A40.24,40.24,0,0,1,886.5,931a39.49,39.49,0,0,1-7.24,5.6c-1.29.78-2.62,1.49-3.88,2.13-.57.3-1.35.65-2,1s-1.45.61-2.19.86a37.56,37.56,0,0,1-18.57,1.67,51.06,51.06,0,0,1-17.09-6.11l-.33-.18-.52-.43-7.8-6.34-3.9-3.18c-.29-.23-.71-.6-1.1-.94s-.78-.69-1.16-1c-.75-.72-1.47-1.48-2.15-2.27A34.42,34.42,0,0,1,812.26,911a34.83,34.83,0,0,1-1.58-6L809.8,900c-2.3-13.2-4.47-26.42-6.68-39.64-4.3-26.44-8.51-52.9-12.44-79.4s-7.74-53-11.24-79.6-6.81-53.17-9.76-79.84l.1.44q-3.59-13.68-7-27.41c-1.14-4.58-2.33-9.15-3.43-13.74S757.06,571.6,756,567Z" transform="translate(-147.3 -144.88)"/><path d="M798,585c1.9,2.87,3.74,5.76,5.6,8.65s3.68,5.79,5.51,8.69l.06.1.09.3c5,18.13,9.47,36.37,13.78,54.64s8.36,36.61,12.24,55,7.53,36.76,11.05,55.19c1.71,9.22,3.46,18.44,5.09,27.68l.56,3.17a7.46,7.46,0,0,0,.68,1.88,9.71,9.71,0,0,0,3,3.33,18.74,18.74,0,0,0,2.45,1.46l3.09,1.66,6.19,3.35-.75-.31a40.69,40.69,0,0,0,21.56,1.63,38.91,38.91,0,0,0,5.26-1.51l.65-.24.69-.27,1.34-.55c.88-.37,1.74-.75,2.57-1.16a32.61,32.61,0,0,0,9-6.34,28.12,28.12,0,0,0,6-9.22A33.11,33.11,0,0,0,916,781a44,44,0,0,0-1.2-11.76,55,55,0,0,0-4-11.44,48.3,48.3,0,0,1,8.82,23.09,35.8,35.8,0,0,1-1.12,12.9,32.85,32.85,0,0,1-6.09,11.79,37.87,37.87,0,0,1-10.14,8.68c-.95.57-1.91,1.1-2.88,1.6l-1.43.73-.7.34-.76.36a41.15,41.15,0,0,1-6.31,2.34,46,46,0,0,1-13.34,1.73,51.68,51.68,0,0,1-13.29-2l-.27-.08-.48-.23-6.35-3-3.17-1.53a30.35,30.35,0,0,1-3.67-2,20.16,20.16,0,0,1-6.56-6.85,18.46,18.46,0,0,1-1.86-4.65l-.8-3.73c-2-9.16-3.86-18.34-5.76-27.52Q829.07,742.1,824,714.46T814.5,659c-2.92-18.53-5.66-37.09-7.92-55.76l.14.4c-1.47-3.1-3-6.19-4.4-9.31S799.41,588.13,798,585Z" transform="translate(-147.3 -144.88)"/><path d="M914.19,837.25a77.29,77.29,0,0,0,7.27,7.22,36,36,0,0,0,7.88,5.29,16.34,16.34,0,0,0,7.85,1.77,12.82,12.82,0,0,0,6.72-2.34,20.28,20.28,0,0,0,3-2.49,30.3,30.3,0,0,0,2.81-3.11,55.48,55.48,0,0,0,4.9-7.48,83.2,83.2,0,0,0,4.07-8.38,81.88,81.88,0,0,0,3.22-8.75,62.71,62.71,0,0,0,2.69-17.78,85,85,0,0,0-.51-9.25l-.3-2.33-.38-2.33c-.27-1.56-.54-3.13-.91-4.69a129.48,129.48,0,0,0-5.73-18.75c-2.37-6.26-5.18-12.44-8.19-18.78a67.18,67.18,0,0,1,7.81,7.09,85.76,85.76,0,0,1,6.83,8.12,84.41,84.41,0,0,1,10.54,18.79,72.06,72.06,0,0,1,5.06,21.64,62.42,62.42,0,0,1-2.58,22.68,87.28,87.28,0,0,1-4.06,10.4,80.09,80.09,0,0,1-5.46,9.75,55.48,55.48,0,0,1-7.28,9,34.49,34.49,0,0,1-10.12,7.12,24.13,24.13,0,0,1-6.38,1.83,19,19,0,0,1-6.68-.15,23,23,0,0,1-11.06-5.49,33.67,33.67,0,0,1-7-8.71A41.14,41.14,0,0,1,914.19,837.25Z" transform="translate(-147.3 -144.88)"/><path d="M341.5,224.5c.81,5.95,1.42,11.69,2.65,17.3a118.92,118.92,0,0,0,4.49,16.27,96.23,96.23,0,0,0,6.69,15c.33.59.63,1.21,1,1.79l1.07,1.73c.73,1.14,1.35,2.34,2.18,3.41l2.32,3.3,2.53,3.14a39.86,39.86,0,0,0,2.66,3l1.35,1.49c.46.48,1,.91,1.44,1.38l1.44,1.39a15.79,15.79,0,0,0,1.49,1.35c1,.85,2.07,1.68,3.09,2.56,2.15,1.57,4.3,3.17,6.61,4.57a75.19,75.19,0,0,0,7.14,3.85c9.89,4.66,21,7.17,32.87,8.44a61.37,61.37,0,0,1-36.17.4,63.51,63.51,0,0,1-17.09-8,68.65,68.65,0,0,1-14.05-12.74l-2.94-3.72-2.61-3.94c-.89-1.3-1.57-2.73-2.35-4.09l-1.12-2.06c-.38-.69-.66-1.43-1-2.14a75.89,75.89,0,0,1-3.69-53.69Z" transform="translate(-147.3 -144.88)"/><path class="cls-3" d="M671,432s-49.28,1.48-24.64-53.5Z" transform="translate(-147.3 -144.88)"/><path d="M734.75,406.16l-5.32,29.89S709.21,422.58,734.75,406.16Z" transform="translate(-147.3 -144.88)"/><path d="M359.5,566.5c11.85-4.16,23.47-8.52,34.75-13.57a342,342,0,0,0,32.87-16.66c5.29-3.07,10.48-6.31,15.6-9.67,2.57-1.67,5.12-3.4,7.66-5.14l7.65-5.27c5.1-3.57,10.33-7.09,15.75-10.49a134.63,134.63,0,0,1,17.15-9.07,107.11,107.11,0,0,1,18.53-6.08l2.44-.55c.89-.19,1.72-.33,2.55-.46,1.64-.25,3.24-.45,4.84-.62,3.19-.34,6.34-.59,9.5-.79,12.61-.77,25.18-.88,37.75-.45a295.41,295.41,0,0,1,37.55,3.57,143.57,143.57,0,0,1,18.41,4.25,73.56,73.56,0,0,1,8.85,3.31,42.48,42.48,0,0,1,8.15,4.69c-5.44-3.09-11.48-4.75-17.51-6a155.41,155.41,0,0,0-18.37-2.53,335.37,335.37,0,0,0-37.11-.84q-9.28.22-18.55.83c-6.17.38-12.34.88-18.46,1.55-3,.34-6.11.69-9.11,1.14-1.49.22-3,.46-4.41.74-.71.13-1.41.28-2,.44-.29.07-.67.19-1,.3l-1.08.34A115.19,115.19,0,0,0,495.21,506c-10.72,5.18-20.64,12.19-31,19.24a277.12,277.12,0,0,1-32.47,19.65A217.88,217.88,0,0,1,396.49,559,196.54,196.54,0,0,1,359.5,566.5Z" transform="translate(-147.3 -144.88)"/></svg>